<svg width="324" height="242" viewBox="0 0 324 242" fill="none" xmlns="http://www.w3.org/2000/svg">
<circle cx="234" cy="47" r="47" fill="#B4D3E8"/>
<circle cx="255" cy="121" r="47" fill="#B4D3E8"/>
<circle cx="204" cy="156" r="47" fill="#B4D3E8"/>
<circle cx="171" cy="170" r="47" fill="#B4D3E8"/>
<circle cx="114" cy="186" r="47" fill="#B4D3E8"/>
<circle cx="65" cy="182" r="47" fill="#B4D3E8"/>
<circle cx="264.5" cy="64.5" r="38.5" fill="#F3FDFF"/>
<circle cx="277" cy="130" r="47" fill="#F3FDFF"/>
<circle cx="234" cy="173" r="39" fill="#F3FDFF"/>
<circle cx="193" cy="179" r="47" fill="#F3FDFF"/>
<circle cx="139" cy="198" r="44" fill="#F3FDFF"/>
<path d="M125.5 184.961C125.5 210.918 104.457 231.961 78.5 231.961C52.5426 231.961 31.5 210.918 31.5 184.961C31.5 159.003 52.5426 137.961 78.5 137.961C104.457 137.961 125.5 159.003 125.5 184.961Z" fill="#F3FDFF"/>
</svg>
