<svg width="213" height="120" viewBox="0 0 213 120" fill="none" xmlns="http://www.w3.org/2000/svg">
<path d="M98.1492 40.2178C97.2858 41.1204 96.2361 41.6011 95 41.66C96.2361 41.7188 97.2858 42.1996 98.1492 43.1119C99.0125 44.0145 99.4441 45.0936 99.4441 46.3396C99.4441 45.5155 99.6404 44.7601 100.033 44.0537C100.435 43.3474 100.975 42.7784 101.652 42.3565C102.338 41.9249 103.084 41.6992 103.898 41.66C102.652 41.5913 101.602 41.1204 100.739 40.2178C99.8758 39.3153 99.4441 38.2459 99.4441 37C99.4441 38.2459 99.0125 39.3153 98.1492 40.2178Z" fill="white"/>
<path d="M107.149 87.2178C106.286 88.1204 105.236 88.6011 104 88.66C105.236 88.7188 106.286 89.1996 107.149 90.1119C108.012 91.0145 108.444 92.0936 108.444 93.3396C108.444 92.5155 108.64 91.7601 109.033 91.0537C109.435 90.3474 109.975 89.7784 110.652 89.3565C111.338 88.9249 112.084 88.6992 112.898 88.66C111.652 88.5913 110.602 88.1204 109.739 87.2178C108.876 86.3153 108.444 85.2459 108.444 84C108.444 85.2459 108.012 86.3153 107.149 87.2178Z" fill="white"/>
<path d="M141.149 45.2178C140.286 46.1204 139.236 46.6011 138 46.66C139.236 46.7188 140.286 47.1996 141.149 48.1119C142.012 49.0145 142.444 50.0936 142.444 51.3396C142.444 50.5155 142.64 49.7601 143.033 49.0537C143.435 48.3474 143.975 47.7784 144.652 47.3565C145.338 46.9249 146.084 46.6992 146.898 46.66C145.652 46.5913 144.602 46.1204 143.739 45.2178C142.876 44.3153 142.444 43.2459 142.444 42C142.444 43.2459 142.012 44.3153 141.149 45.2178Z" fill="white"/>
<path d="M163.416 25.4465C163.028 25.8523 162.556 26.0684 162 26.0948C162.556 26.1213 163.028 26.3374 163.416 26.7475C163.804 27.1533 163.998 27.6384 163.998 28.1985C163.998 27.828 164.086 27.4884 164.262 27.1709C164.443 26.8534 164.686 26.5976 164.99 26.4079C165.299 26.2139 165.634 26.1125 166 26.0948C165.44 26.0639 164.968 25.8523 164.58 25.4465C164.192 25.0408 163.998 24.5601 163.998 24C163.998 24.5601 163.804 25.0408 163.416 25.4465Z" fill="white"/>
<path d="M188.416 74.4465C188.028 74.8523 187.556 75.0684 187 75.0948C187.556 75.1213 188.028 75.3374 188.416 75.7475C188.804 76.1533 188.998 76.6384 188.998 77.1985C188.998 76.828 189.086 76.4884 189.262 76.1709C189.443 75.8534 189.686 75.5976 189.99 75.4079C190.299 75.2139 190.634 75.1125 191 75.0948C190.44 75.0639 189.968 74.8523 189.58 74.4465C189.192 74.0408 188.998 73.5601 188.998 73C188.998 73.5601 188.804 74.0408 188.416 74.4465Z" fill="white"/>
<path d="M154.309 99.4245C152.853 100.946 151.084 101.756 149 101.856C151.084 101.955 152.853 102.765 154.309 104.303C155.764 105.825 156.492 107.644 156.492 109.744C156.492 108.355 156.822 107.082 157.484 105.891C158.162 104.7 159.072 103.741 160.213 103.03C161.37 102.302 162.627 101.922 164 101.856C161.9 101.74 160.13 100.946 158.675 99.4245C157.219 97.903 156.492 96.1003 156.492 94C156.492 96.1003 155.764 97.903 154.309 99.4245Z" fill="white"/>
<path d="M146.416 5.44653C146.028 5.85226 145.556 6.06836 145 6.09482C145.556 6.12128 146.028 6.33738 146.416 6.74752C146.804 7.15325 146.998 7.63837 146.998 8.19846C146.998 7.828 147.086 7.48842 147.262 7.17089C147.443 6.85336 147.686 6.59757 147.99 6.40794C148.299 6.21389 148.634 6.11246 149 6.09482C148.44 6.06395 147.968 5.85226 147.58 5.44653C147.192 5.04079 146.998 4.56009 146.998 4C146.998 4.56009 146.804 5.04079 146.416 5.44653Z" fill="white"/>
<path d="M87.4157 1.44653C87.0276 1.85226 86.5557 2.06836 86 2.09482C86.5557 2.12128 87.0276 2.33738 87.4157 2.74752C87.8037 3.15325 87.9978 3.63837 87.9978 4.19846C87.9978 3.828 88.086 3.48842 88.2624 3.17089C88.4432 2.85336 88.6858 2.59757 88.9901 2.40794C89.2988 2.21389 89.634 2.11246 90 2.09482C89.4399 2.06395 88.968 1.85226 88.5799 1.44653C88.1918 1.04079 87.9978 0.560088 87.9978 0C87.9978 0.560088 87.8037 1.04079 87.4157 1.44653Z" fill="white"/>
<path d="M94.4157 111.447C94.0276 111.852 93.5557 112.068 93 112.095C93.5557 112.121 94.0276 112.337 94.4157 112.748C94.8037 113.153 94.9978 113.638 94.9978 114.198C94.9978 113.828 95.086 113.488 95.2624 113.171C95.4432 112.853 95.6858 112.598 95.9901 112.408C96.2988 112.214 96.634 112.112 97 112.095C96.4399 112.064 95.968 111.852 95.5799 111.447C95.1918 111.041 94.9978 110.56 94.9978 110C94.9978 110.56 94.8037 111.041 94.4157 111.447Z" fill="white"/>
<path d="M78.4157 50.4465C78.0276 50.8523 77.5557 51.0684 77 51.0948C77.5557 51.1213 78.0276 51.3374 78.4157 51.7475C78.8037 52.1533 78.9978 52.6384 78.9978 53.1985C78.9978 52.828 79.086 52.4884 79.2624 52.1709C79.4432 51.8534 79.6858 51.5976 79.9901 51.4079C80.2988 51.2139 80.634 51.1125 81 51.0948C80.4399 51.0639 79.968 50.8523 79.5799 50.4465C79.1918 50.0408 78.9978 49.5601 78.9978 49C78.9978 49.5601 78.8037 50.0408 78.4157 50.4465Z" fill="white"/>
<path d="M205.149 113.218C204.286 114.12 203.236 114.601 202 114.66C203.236 114.719 204.286 115.2 205.149 116.112C206.012 117.014 206.444 118.094 206.444 119.34C206.444 118.515 206.64 117.76 207.033 117.054C207.435 116.347 207.975 115.778 208.652 115.357C209.338 114.925 210.084 114.699 210.898 114.66C209.652 114.591 208.602 114.12 207.739 113.218C206.876 112.315 206.444 111.246 206.444 110C206.444 111.246 206.012 112.315 205.149 113.218Z" fill="white"/>
<path d="M19.4157 63.4465C19.0276 63.8523 18.5557 64.0684 18 64.0948C18.5557 64.1213 19.0276 64.3374 19.4157 64.7475C19.8037 65.1533 19.9978 65.6384 19.9978 66.1985C19.9978 65.828 20.086 65.4884 20.2624 65.1709C20.4432 64.8534 20.6858 64.5976 20.9901 64.4079C21.2988 64.2139 21.634 64.1125 22 64.0948C21.4399 64.0639 20.968 63.8523 20.5799 63.4465C20.1918 63.0408 19.9978 62.5601 19.9978 62C19.9978 62.5601 19.8037 63.0408 19.4157 63.4465Z" fill="white"/>
<path d="M30.4157 13.4465C30.0276 13.8523 29.5557 14.0684 29 14.0948C29.5557 14.1213 30.0276 14.3374 30.4157 14.7475C30.8037 15.1533 30.9978 15.6384 30.9978 16.1985C30.9978 15.828 31.086 15.4884 31.2624 15.1709C31.4432 14.8534 31.6858 14.5976 31.9901 14.4079C32.2988 14.2139 32.634 14.1125 33 14.0948C32.4399 14.0639 31.968 13.8523 31.5799 13.4465C31.1918 13.0408 30.9978 12.5601 30.9978 12C30.9978 12.5601 30.8037 13.0408 30.4157 13.4465Z" fill="white"/>
<path d="M56.3087 25.4245C54.8534 26.946 53.0838 27.7563 51 27.8556C53.0838 27.9548 54.8534 28.7652 56.3087 30.3032C57.7641 31.8247 58.4917 33.6439 58.4917 35.7442C58.4917 34.355 58.8225 33.0816 59.484 31.8908C60.1621 30.7001 61.0717 29.7409 62.2128 29.0298C63.3705 28.3021 64.6273 27.9217 66 27.8556C63.8997 27.7398 62.1301 26.946 60.6748 25.4245C59.2194 23.903 58.4917 22.1003 58.4917 20C58.4917 22.1003 57.7641 23.903 56.3087 25.4245Z" fill="white"/>
<path d="M56.4157 75.4465C56.0276 75.8523 55.5557 76.0684 55 76.0948C55.5557 76.1213 56.0276 76.3374 56.4157 76.7475C56.8037 77.1533 56.9978 77.6384 56.9978 78.1985C56.9978 77.828 57.086 77.4884 57.2624 77.1709C57.4432 76.8534 57.6858 76.5976 57.9901 76.4079C58.2988 76.2139 58.634 76.1125 59 76.0948C58.4399 76.0639 57.968 75.8523 57.5799 75.4465C57.1918 75.0408 56.9978 74.5601 56.9978 74C56.9978 74.5601 56.8037 75.0408 56.4157 75.4465Z" fill="white"/>
<path d="M3.14916 36.2178C2.28584 37.1204 1.23612 37.6011 0 37.66C1.23612 37.7188 2.28584 38.1996 3.14916 39.1119C4.01249 40.0145 4.44415 41.0936 4.44415 42.3396C4.44415 41.5155 4.64036 40.7601 5.03278 40.0537C5.43501 39.3474 5.97458 38.7784 6.65151 38.3565C7.33824 37.9249 8.08384 37.6992 8.89811 37.66C7.65218 37.5913 6.60245 37.1204 5.73913 36.2178C4.87581 35.3153 4.44415 34.2459 4.44415 33C4.44415 34.2459 4.01249 35.3153 3.14916 36.2178Z" fill="white"/>
<path d="M28.1492 96.2178C27.2858 97.1204 26.2361 97.6011 25 97.66C26.2361 97.7188 27.2858 98.1996 28.1492 99.1119C29.0125 100.014 29.4441 101.094 29.4441 102.34C29.4441 101.515 29.6404 100.76 30.0328 100.054C30.435 99.3474 30.9746 98.7784 31.6515 98.3565C32.3382 97.9249 33.0838 97.6992 33.8981 97.66C32.6522 97.5913 31.6025 97.1204 30.7391 96.2178C29.8758 95.3153 29.4441 94.2459 29.4441 93C29.4441 94.2459 29.0125 95.3153 28.1492 96.2178Z" fill="white"/>
<path d="M210.416 5.44653C210.028 5.85226 209.556 6.06836 209 6.09482C209.556 6.12128 210.028 6.33738 210.416 6.74752C210.804 7.15325 210.998 7.63837 210.998 8.19846C210.998 7.828 211.086 7.48842 211.262 7.17089C211.443 6.85336 211.686 6.59757 211.99 6.40794C212.299 6.21389 212.634 6.11246 213 6.09482C212.44 6.06395 211.968 5.85226 211.58 5.44653C211.192 5.04079 210.998 4.56009 210.998 4C210.998 4.56009 210.804 5.04079 210.416 5.44653Z" fill="white"/>
</svg>
